<?xml version="1.0" ?><!DOCTYPE svg  PUBLIC '-//W3C//DTD SVG 1.1//EN'  'http://www.w3.org/Graphics/SVG/1.1/DTD/svg11.dtd'><svg enable-background="new 0 0 24 24" height="24px" id="Layer_1" version="1.1" viewBox="0 0 24 24" width="24px" xml:space="preserve" xmlns="http://www.w3.org/2000/svg" xmlns:xlink="http://www.w3.org/1999/xlink"><path d="M19,11v2h-1V6c0-3.3-2.7-6-6-6S6,2.7,6,6v7H5v-2H4v3c0,3.7,2.6,6.8,6,7.7V22c0,1.1,0.9,2,2,2s2-0.9,2-2v-0.3  c3.4-0.9,6-4,6-7.7v-3H19z M8,13h1.5c0.3,0,0.5-0.2,0.5-0.5S9.8,12,9.5,12H8v-2h1.5C9.8,10,10,9.8,10,9.5S9.8,9,9.5,9H8V7h1.5  C9.8,7,10,6.8,10,6.5S9.8,6,9.5,6H8c0-2.2,1.8-4,4-4s4,1.8,4,4h-1.5C14.2,6,14,6.2,14,6.5S14.2,7,14.5,7H16v2h-1.5  C14.2,9,14,9.2,14,9.5s0.2,0.5,0.5,0.5H16v2h-1.5c-0.3,0-0.5,0.2-0.5,0.5s0.2,0.5,0.5,0.5H16v1c0,2.2-1.8,4-4,4s-4-1.8-4-4V13z   M14,20.7L13,21v1c0,0.6-0.4,1-1,1s-1-0.4-1-1v-1l-1-0.3c-2.9-0.9-5-3.5-5-6.7h1c0,3.3,2.7,6,6,6s6-2.7,6-6h1  C19,17.2,16.9,19.8,14,20.7z"/></svg>